<?xml version="1.0" encoding="utf-8"?>
<!-- Generator: Adobe Illustrator 21.0.0, SVG Export Plug-In . SVG Version: 6.00 Build 0)  -->
<svg version="1.1" id="Layer_1" xmlns="http://www.w3.org/2000/svg" xmlns:xlink="http://www.w3.org/1999/xlink" x="0px" y="0px"
	 viewBox="0 0 495.3 175.3" style="enable-background:new 0 0 495.3 175.3;" xml:space="preserve">
<style type="text/css">
	.st0{fill:#FFFFFF;}
	.st1{fill:none;}
	.st2{fill:#E2183D;}
</style>
<g>
	<path class="st0" d="M363.4,145.6h117.5c7.1,0,12.9-5.9,12.9-13V44.1c0-7.2-6.4-13.7-13.6-13.7l-116.9,0l0,0V145.6z"/>
</g>
<rect x="-171" y="-125.3" class="st1" width="708.7" height="425.2"/>
<g>
	<path class="st2" d="M350.2,174.3H16.4c-8.3,0-15-6.8-15-15.1V16.8c0-8.3,6.7-15.1,15-15.1h333.8c8.3,0,15,6.8,15,15.1v142.4
		C365.2,167.5,358.5,174.3,350.2,174.3z M16.4,5.7c-6,0-11,5-11,11.1v142.4c0,6.1,4.9,11.1,11,11.1h333.8h0c6.1,0,11-5,11-11.1V16.8
		c0-6.1-4.9-11.1-11-11.1H16.4z"/>
	<path class="st0" d="M16.4,172.3c-7.2,0-13-5.9-13-13.1V16.8c0-7.2,5.8-13.1,13-13.1h333.8c7.2,0,13,5.9,13,13.1v142.4
		c0,7.2-5.8,13.1-13,13.1H16.4z"/>
	<path class="st2" d="M16.4,140.3c-4.5,0-8.1-3.7-8.1-8.2l0,0V16.8c0-4.5,3.6-8.2,8.1-8.2l0,0h333.8c4.5,0,8.1,3.7,8.1,8.2l0,0
		v115.2l0,0c0,4.5-3.6,8.2-8.1,8.2l0,0H16.4L16.4,140.3z"/>
	<g>
		<path class="st2" d="M29.1,165.6l-7.5-13.3v13.6h-3.5v-19.7h4.8l6.6,11.8l6.9-11.8h4.5v19.7H37v-13.6L29.1,165.6z"/>
		<path class="st2" d="M56.8,157.7v8.2H53v-8.2L45,146.2h4.5l5.4,7.8l5.5-7.8h4.3L56.8,157.7z"/>
		<path class="st2" d="M84,156.7l-3.2,2.4v6.8h-3.8v-19.7h3.8v8.4l10.4-8.4h5.1l-9.5,8l9.5,11.7h-4.7L84,156.7z"/>
		<path class="st2" d="M101.2,146.2h3.8v19.7h-3.8V146.2z"/>
		<path class="st2" d="M120.5,149.4v16.5h-3.8v-16.5H109v-3.2h19.1v3.2H120.5z"/>
		<path class="st2" d="M150.3,159.3l1.6,2.8c-0.4,0.4-1,0.8-1.8,1.3c-1.6,1-3,1.6-4.1,1.9c-1.1,0.3-2.4,0.5-4,0.5
			c-3.1,0-5.6-0.7-7.5-2.2c-1.2-0.9-2.1-1.9-2.7-3.2c-0.8-1.4-1.2-3-1.2-4.8c0-2.4,0.7-4.5,2-6.2c2.1-2.6,5.2-4,9.3-4
			c1.5,0,2.9,0.2,4,0.5c1.1,0.3,2.5,1,4.1,1.9c0.8,0.4,1.4,0.9,1.8,1.3l-1.6,2.8c-0.8-0.8-1.6-1.4-2.2-1.8c-1.7-1-3.6-1.4-5.5-1.4
			c-2.3,0-4.2,0.6-5.5,1.7c-1.6,1.3-2.5,3-2.5,5.2c0,2.1,0.8,3.8,2.5,5.2c1.4,1.1,3.2,1.7,5.5,1.7c1.9,0,3.8-0.5,5.5-1.4
			C148.7,160.6,149.4,160.1,150.3,159.3z"/>
		<path class="st2" d="M173.1,157.3h-11.8v8.6h-3.8v-19.7h3.8v7.9h11.8v-7.9h3.8v19.7h-3.8V157.3z"/>
		<path class="st2" d="M187.2,157.3v5.4h14.2v3.2h-18v-19.7H201v3.2h-13.8v4.7h9.5v3.1H187.2z"/>
		<path class="st2" d="M209.9,152.4v13.5h-3.5v-19.7h3.5l13,13.2v-13.2h3.5v19.7h-3.1L209.9,152.4z"/>
		<path class="st2" d="M244.5,157.9v8h-3.8v-19.7h11.2c1.5,0,2.7,0.1,3.5,0.3s1.6,0.5,2.3,0.9c0.7,0.5,1.3,1.2,1.6,2.1
			c0.3,0.8,0.5,1.7,0.5,2.7c0,3.2-1.8,5.1-5.5,5.6l5.6,8.2h-4.2l-5.5-8H244.5z M244.5,154.6h6.9c1,0,1.7,0,2.1-0.1
			c0.4-0.1,0.8-0.2,1.2-0.3c0.8-0.4,1.2-1.1,1.2-2.1c0-1-0.4-1.8-1.2-2.1c-0.4-0.2-0.8-0.3-1.2-0.4c-0.4-0.1-1.1-0.1-2.2-0.1h-6.9
			V154.6z"/>
		<path class="st2" d="M283.9,158.8c0,2.1-0.4,3.6-1.1,4.7c-1.3,1.9-4.2,2.8-8.4,2.8c-3.1,0-5.5-0.5-7.1-1.5
			c-0.9-0.6-1.6-1.4-1.9-2.4c-0.4-1-0.5-2.2-0.5-3.6v-12.6h3.8v11.3c0,1.1,0.1,2,0.2,2.5c0.1,0.5,0.4,1,0.8,1.4c1,1,2.6,1.5,4.9,1.5
			c2.3,0,3.9-0.5,4.9-1.5c0.4-0.4,0.6-0.8,0.8-1.4c0.1-0.5,0.2-1.4,0.2-2.5v-11.3h3.5V158.8z"/>
		<path class="st2" d="M293.7,162.7h13.6v3.2h-17.5v-19.7h3.8V162.7z"/>
		<path class="st2" d="M315.2,157.3v5.4h14.2v3.2h-18v-19.7h17.7v3.2h-13.8v4.7h9.5v3.1H315.2z"/>
		<path class="st2" d="M350.9,148.8l-1.7,3.1c-1.9-1.7-4.2-2.6-7.1-2.7c-1,0-2,0.1-2.8,0.4c-0.6,0.2-1.1,0.5-1.5,0.9
			c-0.4,0.4-0.6,0.8-0.6,1.3c0,0.7,0.5,1.2,1.5,1.5c0.5,0.1,1.5,0.3,3,0.4l2.3,0.2c1.3,0.2,2.4,0.4,3.2,0.6c0.8,0.3,1.5,0.6,2.2,1
			c0.6,0.5,1.1,1.1,1.5,1.9c0.4,0.8,0.5,1.6,0.5,2.5c0,1.4-0.4,2.6-1.3,3.7c-0.8,1-2,1.7-3.7,2.2c-1.2,0.3-2.6,0.5-4,0.5
			c-2.6,0-5.6-0.9-9.1-2.8l1.3-3.3c0.8,0.6,2,1.3,3.6,1.9c1.7,0.6,3.1,0.9,4.3,0.9c1.3,0,2.5-0.2,3.4-0.6c0.5-0.2,1-0.6,1.3-1
			c0.3-0.4,0.5-0.8,0.5-1.3c0-0.7-0.4-1.1-1.2-1.4c-0.5-0.2-1.5-0.4-3-0.5l-2.2-0.2c-1.5-0.2-2.5-0.3-3.1-0.4
			c-0.6-0.1-1.2-0.4-1.8-0.7c-0.8-0.4-1.5-1.1-2-2c-0.4-0.8-0.6-1.7-0.6-2.7c0-1.7,0.5-3,1.6-4.1c1.4-1.4,3.6-2.1,6.6-2.1
			c1.3,0,2.6,0.2,4,0.5C347.3,146.8,349,147.6,350.9,148.8z"/>
	</g>
	<g>
		<path class="st0" d="M81.3,121.1L45.2,56.7v65.6H28.3v-95h23.1l31.6,57l33.3-57H138v95h-18.5V56.7L81.3,121.1z"/>
		<path class="st0" d="M267.7,83.6v38.7h-18.5v-95h53.9c7.2,0,12.8,0.4,17,1.3c4.2,0.8,7.8,2.3,10.9,4.3c3.4,2.4,6,5.7,7.8,9.9
			c1.6,4,2.4,8.3,2.4,12.8c0,15.5-8.9,24.6-26.6,27.2l27.2,39.6h-20.2l-26.8-38.7H267.7z M267.7,67.9h33.2c4.8,0,8.2-0.1,10.2-0.4
			c2-0.3,3.9-0.8,5.8-1.7c3.9-2,5.9-5.4,5.9-10.3c0-5-2-8.5-5.9-10.3c-1.8-0.9-3.6-1.5-5.6-1.8c-2-0.3-5.5-0.4-10.4-0.4h-33.2V67.9z
			"/>
		<g>
			<path class="st0" d="M240.1,126.1c-0.6-0.2-2.9-1.4-2.9-1.5c-0.2-0.2,0-2.2-1.8-3.2c-1.8-1-3.9-0.7-4.1-0.7
				c-0.2-0.3,0-1.6-1.8-2.7c-1.9-1-3.3-0.8-3.9-0.8c-0.1-0.2-0.7-1.7-2.1-2.5c-1.4-0.8-4.1-0.9-4.2-0.8c-0.2-0.2-0.2-1.7-2.3-2.7
				c-2-1-4.1-0.7-4.9-0.5c0,0,0,0,0,0c-0.1-0.1-0.2-0.2-0.3-0.3c-0.1-0.7-0.3-1.5-0.7-2.4c-0.5-1.1-1.4-2.3-2.9-3.2
				c-0.1-0.1-0.8-0.6-1.7-1.2c-3.4-2.5-11.1-8.2-17.9-13.4c-3.4-2.6-6.6-5.4-9.1-7.3c-1.2-0.9-2.2-1.7-2.9-2.3
				c-0.4-0.3-0.6-0.5-0.8-0.7c-0.1-0.1-0.1-0.1-0.2-0.2c-0.3-0.5-1.1-1.9-1.7-3.1c-0.5-0.9-0.9-1.5-1.1-1.8c0-0.1,0-0.2,0-0.4
				c0,0,0-0.1,0-0.1c0.2-0.3,0.8-1.2,1.4-2.4c0.6-1.1,1.3-2.3,1.5-2.7c0.2-0.2,0.8-0.6,1.6-1.2c3.4-2.5,10.8-8.2,17.5-12.9
				c3.4-2.3,6.5-4.5,8.9-6.2c1.2-0.8,2.2-1.5,2.9-2c0.7-0.5,1.2-0.8,1.3-0.8l0.1,0l0,0L208,46c2.5-1.8,3.6-3.4,4.1-4.8
				c0.1-0.4,0.2-0.8,0.2-1.2c0.6,0.2,2.5,0.7,4,0.2c1.6-0.4,2.2-1.7,2.4-2.5c0.2,0,1.8,0.8,4-0.2c2.2-1,1.6-1.9,2-2.5
				c0.9-0.1,1.9,0.8,3.7-0.3c1.8-1.1,1.6-1.9,1.9-2.6c0.7-0.1,1.4,0.4,3.2-0.6c1.8-0.9,1.8-2.4,1.9-2.8c0.5-0.2,0.9-0.4,1.3-0.6
				c0.7-0.4,1.2-0.8,1.5-1c0.5-0.4,0.7-0.8,0.8-1.3l0,0v-0.1v0c0-0.8-0.6-1.5-1.3-1.9c-0.7-0.4-1.5-0.5-2.4-0.5c-0.1,0-0.2,0-0.3,0
				c-1,0-3.1,0.2-5.5,0.4c-2.4,0.3-4.8,0.6-6.4,1.1l-0.1,0l0,0l-0.1,0c-9.1,4-19.6,11.3-29.6,18.7c-10,7.3-19.4,14.8-26,19l-0.2,0.1
				l-0.1,0.1l-0.2,0.3c-0.3,0.4-0.5,0.9-0.5,1.3c-0.5-0.3-1.1-0.5-1.6-0.5c0,0-0.1,0-0.1,0c-0.6,0-1,0.1-1.4,0.2
				c-0.5,0.1-1.1,0.3-2.1,0.7c-2.9,1-8.2,2.7-9.7,3.2c-0.9,0.3-1.5,0.9-1.9,1.3c-1.1,1.5-1.7,3.6-1.7,5.6c0,0.9,0.1,1.9,0.4,2.8
				c0.3,0.9,0.9,1.8,1.9,2.4c1.7,1,4.4,2,6.9,2.9c2.5,0.9,4.8,1.6,5.2,1.8c0.9,0.3,2,0.6,3.1,0.6c0.3,0,0.8,0,1.2-0.1
				c0,0.2,0,0.3,0.1,0.5c0.1,0.9,0.5,1.7,1.1,2.3c1,0.9,2.3,1.2,3.2,1.3c0.5,0.1,0.9,0.1,1.2,0.1c18.7,15.3,30.6,24.1,38.1,29.2
				c7.6,5.1,10.9,6.5,12,7c2.2,1,5.9,2.3,9.2,2.7c0.9,0.1,1.7,0.1,2.4,0.1c2.2,0,3.9-0.3,3.9-0.4c0,0,1.9-0.3,2.4-0.6
				C240.6,127.4,240.7,126.3,240.1,126.1z M156.6,76.3c-0.8,0-1.5-0.7-1.5-1.5c0-0.8,0.7-1.5,1.5-1.5c0.8,0,1.5,0.7,1.5,1.5
				C158.1,75.6,157.4,76.3,156.6,76.3z"/>
		</g>
	</g>
</g>
<g>
	<polygon class="st2" points="384.3,40.7 451.8,40.7 451.6,41 432.1,74.5 404,74.5 384.4,41.1 384.3,40.7 384.3,40.7 	"/>
	<polygon class="st2" points="399.6,135.7 453.7,41.3 454.1,41.3 473.6,74.7 473.9,74.9 474,75.1 440.4,135.6 440.1,135.7 
		399.6,135.7 399.6,135.7 	"/>
</g>
</svg>
