<svg xmlns="http://www.w3.org/2000/svg">

    <symbol viewBox="0 0 74.602 66" id="icon-arrow-left">
        <title>icon-arrow-left</title>            
        <polygon points="39.516,66 39.52,46.863 74.602,46.867 74.602,19.102 39.516,19.102 39.52,0 1.602,33.002" />
    </symbol>
    <symbol viewBox="0 0 74.602 66" id="icon-arrow-up">
        <title>icon-arrow-left</title>            
        <polygon points="39.516,66 39.52,46.863 74.602,46.867 74.602,19.102 39.516,19.102 39.52,0 1.602,33.002" transform="translate(37.301, 33) rotate(90.000000) translate(-37.301, -33) " />
    </symbol>
    <symbol viewBox="0 0 74.602 66" id="icon-arrow-down">
        <title>icon-arrow-up</title>            
        <polygon points="39.516,66 39.52,46.863 74.602,46.867 74.602,19.102 39.516,19.102 39.52,0 1.602,33.002" transform="translate(37.301, 33) rotate(-90.000000) translate(-37.301, -33) " />
    </symbol>    
    <symbol viewBox="0 0 74.602 66" id="icon-arrow-right">
        <title>icon-arrow-left</title>            
        <polygon points="39.516,66 39.52,46.863 74.602,46.867 74.602,19.102 39.516,19.102 39.52,0 1.602,33.002" transform="translate(37.301, 33) rotate(-180.000000) translate(-37.301, -33)" />
    </symbol>        

    <symbol id="icon-caret-right" viewBox="0 0 11 32">
        <path d="M10.286 16q0 0.464-0.339 0.804l-8 8q-0.339 0.339-0.804 0.339t-0.804-0.339-0.339-0.804v-16q0-0.464 0.339-0.804t0.804-0.339 0.804 0.339l8 8q0.339 0.339 0.339 0.804z"></path>
    </symbol>
    <symbol id="icon-caret-left" viewBox="0 0 11 32">
        <path d="M11.429 8v16q0 0.464-0.339 0.804t-0.804 0.339-0.804-0.339l-8-8q-0.339-0.339-0.339-0.804t0.339-0.804l8-8q0.339-0.339 0.804-0.339t0.804 0.339 0.339 0.804z"></path>
    </symbol>
    <symbol id="icon-caret-up" viewBox="0 0 18 32">
        <path d="M18.286 21.714q0 0.464-0.339 0.804t-0.804 0.339h-16q-0.464 0-0.804-0.339t-0.339-0.804 0.339-0.804l8-8q0.339-0.339 0.804-0.339t0.804 0.339l8 8q0.339 0.339 0.339 0.804z"></path>
    </symbol>
    <symbol id="icon-caret-down" viewBox="0 0 18 32">
        <path d="M18.286 12.571q0 0.464-0.339 0.804l-8 8q-0.339 0.339-0.804 0.339t-0.804-0.339l-8-8q-0.339-0.339-0.339-0.804t0.339-0.804 0.804-0.339h16q0.464 0 0.804 0.339t0.339 0.804z"></path>
    </symbol>


    <symbol id="icon-bell" viewBox="0 0 64 45">
        <path d="M13.692,18.375c-0.466,0.466-1.382,0.468-2.035,0.002l-7.679-5.459c-0.652-0.462-0.725-1.304-0.157-1.871
            l2.543-2.544c0.568-0.565,1.408-0.496,1.872,0.157l5.458,7.679C14.16,16.993,14.158,17.908,13.692,18.375z"/>
        <path d="M10.374,24.773c0.152-0.511-0.316-1.223-1.038-1.571l-6.39-3.109c-0.722-0.348-1.496-0.006-1.721,0.763
            l-0.668,2.28c-0.225,0.768,0.241,1.474,1.037,1.567l7.061,0.833C9.45,25.631,10.225,25.288,10.374,24.773z"/>
        <path d="M50.431,18.375c0.469,0.466,1.384,0.468,2.039,0.002l7.677-5.459c0.654-0.462,0.724-1.304,0.158-1.871
            l-2.542-2.544c-0.567-0.565-1.411-0.496-1.873,0.157l-5.458,7.679C49.966,16.993,49.966,17.908,50.431,18.375z"/>
        <path d="M53.753,24.773c-0.15-0.511,0.315-1.223,1.036-1.571l6.393-3.109c0.721-0.348,1.495-0.006,1.72,0.763
            l0.666,2.28c0.226,0.768-0.238,1.474-1.035,1.567l-7.059,0.833C54.677,25.631,53.903,25.288,53.753,24.773z"/>
        <path d="M54.97,32.28h-0.022c-1.212-7.048-7.772-14.37-16.432-16.311c-0.348-1.46-1.103-0.951-1.373-2.229
        c-0.254-1.207-1.255-2.108-2.468-2.652V9.354h7.616c0-1.608-1.56-5.32-3.481-5.32H25.32c-1.921,0-3.482,3.712-3.482,5.32h7.617
        v1.734c-1.215,0.544-2.214,1.445-2.472,2.652c-0.274,1.316-1.063,0.816-1.398,2.234c-8.651,1.949-15.193,9.264-16.404,16.306H9.153
        c-0.756,1.841-3.274,1.852-3.274,3.812v2.913c0,0.802,0.785,1.456,1.741,1.456h24.442h24.442c0.959,0,1.744-0.654,1.744-1.456
        v-2.913C58.248,34.132,55.732,34.12,54.97,32.28z M21.944,33.363c0,0.86-1.441,1.879-1.441,3.014H10.457
        c0-1.951,1.823-2.306,2.169-3.685c1.74-6.898,8.013-13.378,16.52-14.353C26.298,20.096,21.944,23.393,21.944,33.363z"/>
    </symbol>

    <symbol id="icon-wishlist" viewBox="0 0 32 25">
        <path d="M24.586,22.631 C20.500,22.631 17.176,19.302 17.176,15.211 C17.176,11.120 20.500,7.791 24.586,7.791 C28.673,7.791 31.998,11.120 31.998,15.211 C31.998,19.302 28.673,22.631 24.586,22.631 ZM24.586,9.539 C21.463,9.539 18.921,12.083 18.921,15.211 C18.921,18.339 21.463,20.883 24.586,20.883 C27.710,20.883 30.252,18.339 30.252,15.211 C30.252,12.083 27.710,9.539 24.586,9.539 ZM25.311,18.356 C25.311,18.356 23.565,18.356 23.565,18.356 C23.565,18.356 23.565,16.147 23.565,16.147 C23.565,16.147 21.358,16.147 21.358,16.147 C21.358,16.147 21.358,14.399 21.358,14.399 C21.358,14.399 23.565,14.399 23.565,14.399 C23.565,14.399 23.565,12.189 23.565,12.189 C23.565,12.189 25.311,12.189 25.311,12.189 C25.311,12.189 25.311,14.399 25.311,14.399 C25.311,14.399 27.518,14.399 27.518,14.399 C27.518,14.399 27.518,16.147 27.518,16.147 C27.518,16.147 25.311,16.147 25.311,16.147 C25.311,16.147 25.311,18.356 25.311,18.356 ZM25.925,3.470 C24.820,2.364 23.334,1.755 21.742,1.755 C20.097,1.755 18.548,2.398 17.381,3.567 C17.381,3.567 16.796,4.153 16.796,4.153 C16.790,4.159 16.786,4.167 16.779,4.174 C16.779,4.174 13.879,7.145 13.879,7.145 C13.708,7.320 13.481,7.408 13.254,7.408 C13.034,7.408 12.814,7.325 12.644,7.159 C12.299,6.822 12.293,6.268 12.630,5.923 C12.630,5.923 14.721,3.782 14.721,3.782 C14.721,3.782 14.939,3.541 14.939,3.541 C14.939,3.541 16.147,2.331 16.147,2.331 C17.643,0.832 19.630,0.007 21.742,0.007 C23.801,0.007 25.725,0.798 27.159,2.234 C28.588,3.665 29.321,5.532 29.376,7.427 C28.803,7.072 28.190,6.778 27.542,6.556 C27.332,5.420 26.794,4.340 25.925,3.470 ZM12.016,3.567 C10.849,2.398 9.300,1.755 7.655,1.755 C6.062,1.755 4.577,2.364 3.472,3.470 C1.143,5.801 1.187,9.639 3.569,12.024 C3.569,12.024 5.017,13.474 5.017,13.474 C5.017,13.474 6.251,14.710 6.251,14.710 C6.251,14.710 14.699,23.166 14.699,23.166 C14.699,23.166 17.233,20.629 17.233,20.629 C17.580,21.100 17.971,21.536 18.400,21.933 C18.400,21.933 16.057,24.278 16.057,24.278 C16.057,24.278 15.919,24.416 15.919,24.416 C15.549,24.767 15.187,25.008 14.691,25.008 C14.234,25.008 13.735,24.640 13.420,24.358 C13.420,24.358 13.340,24.278 13.340,24.278 C13.340,24.278 5.142,16.070 5.142,16.070 C5.142,16.070 3.878,14.805 3.878,14.805 C3.878,14.805 2.335,13.260 2.335,13.260 C-0.728,10.193 -0.772,5.247 2.238,2.234 C3.672,0.798 5.596,0.007 7.655,0.007 C9.766,0.007 11.754,0.832 13.250,2.331 C13.250,2.331 13.491,2.571 13.491,2.571 C13.491,2.571 12.301,3.852 12.301,3.852 C12.301,3.852 12.016,3.567 12.016,3.567 Z" />
    </symbol>

    <symbol id="icon-hamburger" viewBox="0 0 50 46">
        <rect x="0" width="50" height="11"/>
        <rect x="0" y="17.5" width="50" height="11"/>
        <rect x="0" y="35" width="50" height="11"/>
    </symbol>
    


    <symbol id="icon-angle" viewBox="0 0 16 15">
        <path d="M0.608,15.008 C0.608,15.008 0.004,14.409 0.004,14.409 C0.004,14.409 14.517,-0.008 14.517,-0.008 C14.517,-0.008 15.121,0.591 15.121,0.591 C15.121,0.591 0.608,15.008 0.608,15.008 Z" />
    </symbol>

    <symbol id="icon-video-play" viewBox="0 789.5 40 55">
        <polygon fill="none" points="16.3,800.2 16.3,817.5 16.3,817.5 28.3,807.9 27,809 "/>

        <path d="M20,789.5c-11,0-19.9,8.9-19.9,19.9S9,829.3,20,829.3s19.9-8.9,19.9-19.9S31,789.5,20,789.5z M20,827.9
            c-10.2,0-18.5-8.3-18.5-18.5c0-10.2,8.3-18.5,18.5-18.5s18.5,8.3,18.5,18.5C38.5,819.6,30.2,827.9,20,827.9z"/>
        <polygon points="28.8,807.5 16.4,817.4 16.4,817.4 16.4,799.5 27.4,808.6 28.8,807.5 14.8,796.1 14.8,798.2 14.8,798.2 14.8,818.7 
            14.8,818.7 14.8,820.5 30,808.6  "/>

        <path d="M9.4,842l-3.5-8.2h1.3L9,838c0.1,0.2,0.2,0.5,0.3,0.7c0.1,0.2,0.1,0.4,0.2,0.6c0-0.2,0.1-0.4,0.2-0.6
            c0.1-0.2,0.2-0.4,0.3-0.6l1.8-4.2h1.3L9.4,842z"/>
        <path d="M13.5,834.4c0-0.2,0.1-0.4,0.2-0.5c0.1-0.1,0.3-0.2,0.5-0.2c0.2,0,0.4,0.1,0.5,0.2c0.1,0.1,0.2,0.3,0.2,0.5
            s-0.1,0.4-0.2,0.5c-0.1,0.1-0.3,0.2-0.5,0.2c-0.2,0-0.4-0.1-0.5-0.2C13.5,834.8,13.5,834.6,13.5,834.4z M13.6,841.7v-5.1h1.2v5.1
            H13.6z"/>
        <path d="M20.1,833.4h1.2v8.3h-1.2V841c-0.2,0.3-0.5,0.5-0.7,0.7c-0.3,0.1-0.6,0.2-1,0.2c-0.7,0-1.3-0.2-1.7-0.7
            c-0.4-0.5-0.6-1.2-0.6-2c0-0.8,0.2-1.5,0.6-2c0.4-0.5,1-0.7,1.7-0.7c0.4,0,0.8,0.1,1.1,0.3c0.3,0.2,0.5,0.4,0.6,0.7V833.4z
             M20.1,839.1c0-0.5-0.1-0.9-0.4-1.2c-0.2-0.3-0.6-0.4-1-0.4s-0.8,0.2-1,0.5c-0.3,0.3-0.4,0.7-0.4,1.3c0,0.5,0.1,1,0.4,1.3
            c0.2,0.3,0.6,0.4,1,0.4c0.4,0,0.8-0.2,1-0.5C20,840.1,20.1,839.7,20.1,839.1z"/>
        <path d="M27.8,839.3h-4.1c0,0.5,0.2,0.8,0.4,1.1c0.3,0.3,0.6,0.4,1,0.4c0.4,0,0.7-0.1,0.9-0.2c0.3-0.2,0.5-0.4,0.7-0.8l1,0.5
            c-0.3,0.5-0.6,0.9-1.1,1.1c-0.4,0.3-0.9,0.4-1.5,0.4c-0.8,0-1.5-0.2-1.9-0.7c-0.5-0.5-0.7-1.2-0.7-2c0-0.8,0.2-1.5,0.7-2
            c0.5-0.5,1.1-0.8,1.9-0.8c0.8,0,1.5,0.2,1.9,0.7c0.5,0.5,0.7,1.1,0.7,2V839.3z M26.6,838.5c0-0.4-0.2-0.6-0.4-0.8
            c-0.2-0.2-0.6-0.3-1-0.3c-0.4,0-0.7,0.1-0.9,0.3c-0.2,0.2-0.4,0.5-0.5,0.8H26.6z"/>
        <path d="M28.6,839.2c0-0.4,0.1-0.7,0.2-1.1c0.1-0.3,0.3-0.6,0.6-0.9c0.3-0.3,0.6-0.4,0.9-0.6c0.3-0.1,0.7-0.2,1.1-0.2
            c0.4,0,0.7,0.1,1.1,0.2c0.3,0.1,0.6,0.3,0.9,0.6c0.3,0.3,0.5,0.6,0.6,0.9c0.1,0.3,0.2,0.7,0.2,1c0,0.4-0.1,0.7-0.2,1.1
            s-0.3,0.6-0.6,0.9c-0.3,0.3-0.6,0.5-0.9,0.6c-0.3,0.1-0.7,0.2-1.1,0.2c-0.4,0-0.7-0.1-1.1-0.2c-0.3-0.1-0.6-0.3-0.9-0.6
            c-0.3-0.3-0.5-0.6-0.6-0.9C28.7,839.9,28.6,839.5,28.6,839.2z M33,839.2c0-0.5-0.2-0.9-0.5-1.2c-0.3-0.3-0.7-0.5-1.1-0.5
            c-0.4,0-0.8,0.2-1.1,0.5c-0.3,0.3-0.5,0.7-0.5,1.2s0.2,0.9,0.5,1.2c0.3,0.3,0.7,0.5,1.1,0.5c0.4,0,0.8-0.2,1.1-0.5
            C32.8,840,33,839.6,33,839.2z"/>
    </symbol>

    <symbol id="icon-360" viewBox="-287 379 37 36">
    <path d="M-284.519,397c0-8.971,7.186-16.269,16.019-16.269c6.061,0,11.545,3.448,14.27,8.874h-6.989
        c-0.402,0-0.728,0.331-0.728,0.74c0,0.408,0.326,0.739,0.728,0.739h9.466v-9.613c0-0.409-0.326-0.74-0.728-0.74
        c-0.402,0-0.728,0.331-0.728,0.74v6.952c-3.054-5.621-8.872-9.17-15.29-9.17c-9.635,0-17.475,7.961-17.475,17.747
        c0,0.409,0.326,0.739,0.728,0.739C-284.845,397.739-284.519,397.409-284.519,397z"/>
    <path d="M-251.753,396.26c-0.402,0-0.728,0.33-0.728,0.739c0,8.971-7.186,16.269-16.019,16.269c-6.061,0-11.545-3.448-14.269-8.874
        h6.988c0.402,0,0.728-0.331,0.728-0.739c0-0.409-0.326-0.74-0.728-0.74h-9.465v9.614c0,0.408,0.326,0.739,0.727,0.739
        c0.402,0,0.728-0.331,0.728-0.739v-6.952c3.054,5.62,8.873,9.17,15.29,9.17c9.635,0,17.475-7.962,17.475-17.748
        C-251.025,396.59-251.352,396.26-251.753,396.26z"/>
    <path d="M-274.818,396.226c0.2,0,0.39-0.021,0.57-0.061c0.18-0.04,0.338-0.107,0.475-0.204s0.243-0.222,0.32-0.375
        c0.076-0.153,0.115-0.344,0.115-0.57c0-0.187-0.033-0.36-0.1-0.521c-0.066-0.159-0.158-0.296-0.275-0.409s-0.255-0.202-0.415-0.266
        s-0.333-0.095-0.52-0.095c-0.34,0-0.62,0.099-0.84,0.295c-0.22,0.196-0.357,0.458-0.41,0.785h-0.93
        c0.093-0.627,0.328-1.101,0.705-1.42c0.377-0.32,0.878-0.48,1.505-0.48c0.3,0,0.582,0.047,0.845,0.141
        c0.263,0.093,0.495,0.228,0.695,0.404c0.2,0.177,0.356,0.391,0.47,0.641s0.17,0.531,0.17,0.845c0,0.373-0.08,0.705-0.24,0.995
        c-0.16,0.29-0.4,0.524-0.72,0.705c0.374,0.173,0.645,0.427,0.815,0.76s0.255,0.703,0.255,1.11c0,0.354-0.062,0.67-0.185,0.949
        c-0.124,0.28-0.293,0.518-0.51,0.71c-0.217,0.194-0.472,0.342-0.765,0.445s-0.61,0.155-0.95,0.155c-0.293,0-0.577-0.047-0.85-0.141
        c-0.273-0.093-0.515-0.228-0.725-0.404s-0.38-0.389-0.51-0.635c-0.13-0.247-0.202-0.527-0.215-0.841h0.91
        c0.02,0.188,0.075,0.354,0.165,0.5c0.09,0.147,0.2,0.272,0.33,0.375c0.13,0.104,0.278,0.184,0.445,0.24s0.34,0.085,0.52,0.085
        c0.207,0,0.398-0.038,0.575-0.115c0.176-0.076,0.33-0.182,0.46-0.314c0.13-0.134,0.23-0.29,0.3-0.47
        c0.07-0.181,0.105-0.374,0.105-0.58c0-0.24-0.04-0.455-0.12-0.646c-0.08-0.189-0.19-0.348-0.33-0.475
        c-0.14-0.127-0.307-0.221-0.5-0.28s-0.407-0.08-0.64-0.06V396.226z"/>
    <path d="M-267.318,393.365l-2.01,2.721l0.02,0.02c0.113-0.054,0.231-0.097,0.355-0.13s0.251-0.05,0.385-0.05
        c0.306,0,0.593,0.066,0.86,0.199c0.267,0.134,0.498,0.311,0.694,0.53c0.197,0.22,0.351,0.472,0.46,0.755
        c0.11,0.284,0.165,0.575,0.165,0.875c0,0.347-0.064,0.67-0.194,0.971c-0.13,0.3-0.309,0.562-0.535,0.784
        c-0.227,0.224-0.492,0.4-0.795,0.53c-0.303,0.13-0.625,0.195-0.965,0.195c-0.327,0-0.64-0.063-0.94-0.19
        c-0.3-0.126-0.567-0.298-0.8-0.515s-0.42-0.472-0.56-0.765c-0.14-0.294-0.21-0.607-0.21-0.94c0-0.38,0.082-0.731,0.245-1.055
        c0.163-0.323,0.355-0.636,0.575-0.936l2.57-3.46L-267.318,393.365z M-268.888,399.926c0.207,0,0.407-0.04,0.6-0.12
        s0.365-0.19,0.515-0.33c0.15-0.14,0.269-0.304,0.355-0.49c0.086-0.187,0.13-0.387,0.13-0.6c0-0.233-0.047-0.45-0.141-0.65
        c-0.093-0.2-0.215-0.371-0.364-0.515c-0.15-0.144-0.32-0.255-0.51-0.335s-0.385-0.12-0.585-0.12c-0.207,0-0.405,0.043-0.595,0.13
        s-0.36,0.203-0.51,0.35c-0.15,0.147-0.27,0.313-0.36,0.5c-0.09,0.188-0.135,0.384-0.135,0.591c0,0.22,0.043,0.425,0.13,0.614
        c0.086,0.19,0.203,0.358,0.35,0.505c0.147,0.147,0.317,0.262,0.51,0.346C-269.305,399.884-269.102,399.926-268.888,399.926z"/>
    <path d="M-263.118,400.766c-0.32,0-0.608-0.062-0.865-0.186c-0.257-0.123-0.483-0.286-0.68-0.489c-0.197-0.204-0.364-0.44-0.5-0.71
        c-0.137-0.271-0.249-0.551-0.336-0.841c-0.086-0.29-0.149-0.581-0.189-0.875c-0.04-0.293-0.061-0.569-0.061-0.829
        c0-0.261,0.021-0.537,0.061-0.83c0.04-0.294,0.104-0.585,0.189-0.875c0.087-0.29,0.199-0.57,0.336-0.841
        c0.136-0.27,0.301-0.506,0.494-0.71c0.193-0.203,0.419-0.366,0.676-0.489c0.256-0.124,0.548-0.186,0.875-0.186
        c0.326,0,0.618,0.062,0.875,0.186c0.256,0.123,0.481,0.286,0.675,0.489c0.193,0.204,0.358,0.44,0.495,0.71
        c0.137,0.271,0.248,0.551,0.335,0.841c0.086,0.29,0.149,0.581,0.189,0.875c0.04,0.293,0.061,0.569,0.061,0.83
        c0,0.253-0.021,0.528-0.061,0.824c-0.04,0.297-0.104,0.59-0.189,0.88c-0.087,0.29-0.198,0.57-0.335,0.841
        c-0.137,0.27-0.304,0.506-0.5,0.71c-0.197,0.203-0.424,0.366-0.681,0.489C-262.511,400.704-262.799,400.766-263.118,400.766z
         M-263.118,393.705c-0.341,0-0.62,0.114-0.841,0.341c-0.22,0.227-0.396,0.503-0.529,0.829c-0.134,0.327-0.227,0.669-0.28,1.025
        s-0.08,0.665-0.08,0.925c0,0.174,0.012,0.37,0.035,0.59c0.023,0.221,0.062,0.445,0.115,0.676c0.053,0.229,0.123,0.455,0.21,0.675
        c0.086,0.22,0.193,0.417,0.319,0.59c0.127,0.174,0.277,0.312,0.45,0.415c0.174,0.104,0.373,0.155,0.601,0.155
        c0.227,0,0.426-0.052,0.6-0.155c0.173-0.104,0.323-0.241,0.45-0.415c0.126-0.173,0.233-0.37,0.319-0.59
        c0.087-0.22,0.157-0.445,0.211-0.675c0.053-0.23,0.091-0.455,0.114-0.676c0.023-0.22,0.035-0.416,0.035-0.59
        c0-0.26-0.026-0.568-0.08-0.925s-0.146-0.698-0.28-1.025c-0.133-0.326-0.31-0.603-0.529-0.829
        C-262.499,393.819-262.778,393.705-263.118,393.705z"/>
    </symbol>
    <symbol id="icon-zoom-outline" viewBox="-283 374 44 45">
        <path d="M-243.431,418.682h-0.308l-12.11-12.354l4.738-4.834L-239,413.848v0.315
        C-239,416.655-240.988,418.682-243.431,418.682z M-251.111,403.642l-2.633,2.686l10.607,10.82c1.387-0.141,2.495-1.27,2.633-2.685
        L-251.111,403.642z M-266.249,408.185c-9.238,0-16.754-7.667-16.754-17.092c0-9.425,7.516-17.093,16.754-17.093
        s16.753,7.668,16.753,17.093C-249.496,400.518-257.011,408.185-266.249,408.185z M-266.249,375.52
        c-8.417,0-15.265,6.986-15.265,15.573c0,8.587,6.848,15.573,15.265,15.573c8.417,0,15.264-6.986,15.264-15.573
        C-250.985,382.506-257.832,375.52-266.249,375.52z"/>
        <polygon points="-260.429,390.765 -266.146,390.765 -266.146,385.247 -267.146,385.247 -267.146,390.765 -272.864,390.765 
        -272.864,391.729 -267.146,391.729 -267.146,397.247 -266.146,397.247 -266.146,391.729 -260.429,391.729 "/>
    </symbol>

    <symbol id="icon-zoom-thin" viewBox="0 0 37 37">  
        <path d="M36.183,35.300 C36.183,35.300 27.412,26.455 27.412,26.455 C29.920,23.646 31.460,19.940 31.460,15.862 C31.460,7.106 24.421,0.007 15.736,0.007 C7.052,0.007 0.012,7.106 0.012,15.862 C0.012,24.619 7.052,31.717 15.736,31.717 C19.780,31.717 23.456,30.165 26.242,27.635 C26.242,27.635 35.013,36.480 35.013,36.480 C35.162,36.631 35.369,36.724 35.598,36.724 C36.055,36.724 36.426,36.351 36.426,35.890 C36.426,35.660 36.334,35.451 36.183,35.300 ZM15.736,30.049 C7.966,30.049 1.667,23.697 1.667,15.862 C1.667,8.027 7.966,1.676 15.736,1.676 C23.506,1.676 29.805,8.027 29.805,15.862 C29.805,23.697 23.506,30.049 15.736,30.049 ZM23.184,15.028 C23.184,15.028 16.564,15.028 16.564,15.028 C16.564,15.028 16.564,8.352 16.564,8.352 C16.564,7.891 16.193,7.517 15.736,7.517 C15.279,7.517 14.908,7.891 14.908,8.352 C14.908,8.352 14.908,15.028 14.908,15.028 C14.908,15.028 8.288,15.028 8.288,15.028 C7.830,15.028 7.460,15.402 7.460,15.862 C7.460,16.323 7.830,16.697 8.288,16.697 C8.288,16.697 14.908,16.697 14.908,16.697 C14.908,16.697 14.908,23.372 14.908,23.372 C14.908,23.834 15.279,24.207 15.736,24.207 C16.193,24.207 16.564,23.834 16.564,23.372 C16.564,23.372 16.564,16.697 16.564,16.697 C16.564,16.697 23.184,16.697 23.184,16.697 C23.642,16.697 24.012,16.323 24.012,15.862 C24.012,15.402 23.642,15.028 23.184,15.028 Z" />
    </symbol>


    <symbol id="icon-angle-right-2" viewBox="0 0 23 43">  
      <path d="M1.135,0.011 C1.135,0.011 22.997,21.501 22.997,21.501 C22.997,21.501 1.135,42.988 1.135,42.988 C1.135,42.988 0.003,41.809 0.003,41.809 C0.003,41.809 20.662,21.501 20.662,21.501 C20.662,21.501 0.003,1.192 0.003,1.192 C0.003,1.192 1.135,0.011 1.135,0.011 Z" />
    </symbol>

    <symbol id="icon-angle-left-2" viewBox="0 0 23 43">  
      <path d="M1.135,0.011 C1.135,0.011 22.997,21.501 22.997,21.501 C22.997,21.501 1.135,42.988 1.135,42.988 C1.135,42.988 0.003,41.809 0.003,41.809 C0.003,41.809 20.662,21.501 20.662,21.501 C20.662,21.501 0.003,1.192 0.003,1.192 C0.003,1.192 1.135,0.011 1.135,0.011 Z" transform="translate(11.5, 28) rotate(-180.000000) translate(-11.5, -28)"/>
    </symbol>

    



    <symbol id="icon-pickup-outline" viewBox="0 0 22 16">
        <path d="M19.389,6.278 C18.497,6.278 17.586,5.871 16.921,5.244 C16.591,5.871 15.899,6.278 15.007,6.278 C14.108,6.278 13.267,5.866 12.717,5.232 C12.274,5.866 11.503,6.278 10.604,6.278 C9.703,6.278 8.936,5.863 8.503,5.224 C7.943,5.863 7.093,6.278 6.191,6.278 C5.290,6.278 4.600,5.863 4.285,5.224 C3.607,5.863 2.680,6.278 1.778,6.278 C0.253,6.278 -0.406,5.095 0.291,3.642 C0.291,3.642 1.440,1.125 1.440,1.125 C1.440,1.125 1.243,1.125 1.243,1.125 C0.936,1.125 0.686,0.873 0.686,0.562 C0.686,0.252 0.936,0.000 1.243,0.000 C1.243,0.000 19.945,0.000 19.945,0.000 C20.253,0.000 20.502,0.252 20.502,0.562 C20.502,0.873 20.253,1.125 19.945,1.125 C19.945,1.125 19.809,1.125 19.809,1.125 C19.809,1.125 20.920,3.642 20.920,3.642 C21.594,5.095 20.914,6.278 19.389,6.278 ZM2.352,1.125 C2.352,1.125 1.315,3.642 1.315,3.642 C0.940,4.514 1.324,5.224 2.176,5.224 C3.028,5.224 3.937,4.514 4.198,3.642 C4.198,3.642 4.919,1.125 4.919,1.125 C4.919,1.125 2.352,1.125 2.352,1.125 ZM5.855,1.125 C5.855,1.125 5.249,3.642 5.249,3.642 C5.030,4.514 5.542,5.224 6.394,5.224 C7.246,5.224 8.026,4.514 8.131,3.642 C8.131,3.642 8.421,1.125 8.421,1.125 C8.421,1.125 5.855,1.125 5.855,1.125 ZM12.065,3.642 C12.065,3.642 11.925,1.125 11.925,1.125 C11.925,1.125 9.358,1.125 9.358,1.125 C9.358,1.125 9.183,3.642 9.183,3.642 C9.120,4.514 9.760,5.224 10.612,5.224 C11.465,5.224 12.116,4.514 12.065,3.642 ZM15.989,3.642 C15.989,3.642 15.419,1.125 15.419,1.125 C15.419,1.125 12.852,1.125 12.852,1.125 C12.852,1.125 13.107,3.642 13.107,3.642 C13.199,4.514 13.968,5.224 14.820,5.224 C15.673,5.224 16.196,4.514 15.989,3.642 ZM19.896,3.642 C19.896,3.642 18.897,1.125 18.897,1.125 C18.897,1.125 16.331,1.125 16.331,1.125 C16.331,1.125 17.014,3.642 17.014,3.642 C17.261,4.514 18.157,5.224 19.010,5.224 C19.862,5.224 20.257,4.514 19.896,3.642 ZM5.500,9.974 C5.500,9.708 5.714,9.491 5.977,9.491 C6.241,9.491 6.455,9.708 6.455,9.974 C6.455,9.974 6.455,10.939 6.455,10.939 C6.455,11.206 6.241,11.421 5.977,11.421 C5.714,11.421 5.500,11.206 5.500,10.939 C5.500,10.939 5.500,9.974 5.500,9.974 ZM12.270,12.556 C12.176,12.650 12.054,12.697 11.932,12.697 C11.810,12.697 11.688,12.650 11.594,12.556 C11.408,12.368 11.408,12.062 11.594,11.874 C11.594,11.874 15.309,8.125 15.309,8.125 C15.495,7.937 15.798,7.937 15.984,8.125 C16.171,8.314 16.171,8.619 15.984,8.807 C15.984,8.807 12.270,12.556 12.270,12.556 ZM16.336,11.076 C16.336,11.076 14.795,12.623 14.795,12.623 C14.702,12.717 14.580,12.764 14.458,12.764 C14.335,12.764 14.212,12.716 14.119,12.621 C13.933,12.433 13.934,12.128 14.121,11.939 C14.121,11.939 15.662,10.392 15.662,10.392 C15.849,10.204 16.152,10.205 16.338,10.394 C16.524,10.583 16.523,10.888 16.336,11.076 ZM3.226,14.875 C3.226,14.875 7.282,14.875 7.282,14.875 C7.282,14.875 7.282,7.098 7.282,7.098 C7.675,6.990 8.052,6.823 8.397,6.605 C8.397,6.605 8.397,14.875 8.397,14.875 C8.397,14.875 17.967,14.875 17.967,14.875 C17.967,14.875 17.967,6.972 17.967,6.972 C18.330,7.106 18.706,7.191 19.082,7.224 C19.082,7.224 19.082,16.000 19.082,16.000 C19.082,16.000 2.112,16.000 2.112,16.000 C2.112,16.000 2.112,7.231 2.112,7.231 C2.487,7.205 2.861,7.125 3.226,6.999 C3.226,6.999 3.226,14.875 3.226,14.875 Z" />
    </symbol>
    <symbol id="icon-delivery-outline" viewBox="0 0 24 15">
        <path d="M22.192,12.914 C22.220,12.738 22.239,12.559 22.239,12.375 C22.239,12.177 22.218,11.985 22.185,11.796 C22.549,11.745 22.830,11.450 22.830,11.090 C22.830,11.090 22.830,8.358 22.830,8.358 C22.830,8.351 22.831,8.345 22.832,8.338 C22.617,7.948 22.402,7.580 22.189,7.231 C22.182,7.231 22.176,7.233 22.169,7.233 C22.169,7.233 16.643,7.233 16.643,7.233 C14.975,7.233 14.369,5.892 14.369,4.990 C14.369,4.990 14.369,2.874 14.369,2.874 C14.369,2.567 14.631,2.318 14.955,2.318 C15.278,2.318 15.540,2.567 15.540,2.874 C15.540,2.874 15.540,4.990 15.540,4.990 C15.544,5.252 15.635,6.119 16.643,6.119 C16.643,6.119 21.469,6.119 21.469,6.119 C17.856,0.859 14.843,1.122 14.744,1.112 C14.654,1.106 14.634,1.117 14.546,1.112 C14.546,1.112 1.923,1.112 1.923,1.112 C1.508,1.112 1.170,1.433 1.170,1.828 C1.170,1.828 1.170,11.090 1.170,11.090 C1.170,11.485 1.508,11.806 1.923,11.806 C1.923,11.806 2.006,11.806 2.006,11.806 C1.975,11.992 1.954,12.181 1.954,12.375 C1.954,12.560 1.974,12.741 2.003,12.920 C2.003,12.920 1.923,12.920 1.923,12.920 C0.863,12.920 -0.000,12.099 -0.000,11.090 C-0.000,11.090 -0.000,1.828 -0.000,1.828 C-0.000,0.820 0.863,-0.001 1.923,-0.001 C1.923,-0.001 14.550,-0.001 14.550,-0.001 C14.592,-0.001 14.653,-0.004 14.692,0.003 C15.392,-0.031 19.613,0.038 23.923,7.918 C23.979,8.020 23.998,8.130 23.985,8.237 C23.994,8.276 24.000,8.317 24.000,8.358 C24.000,8.358 24.000,11.090 24.000,11.090 C24.000,12.062 23.198,12.857 22.192,12.914 ZM5.719,9.778 C7.018,9.778 8.106,10.647 8.379,11.806 C8.379,11.806 15.814,11.806 15.814,11.806 C16.088,10.647 17.176,9.778 18.474,9.778 C19.979,9.778 21.202,10.943 21.202,12.375 C21.202,13.805 19.979,14.969 18.474,14.969 C17.167,14.969 16.072,14.089 15.808,12.920 C15.808,12.920 8.385,12.920 8.385,12.920 C8.121,14.089 7.027,14.969 5.719,14.969 C4.215,14.969 2.991,13.805 2.991,12.375 C2.991,10.943 4.215,9.778 5.719,9.778 ZM18.474,13.855 C19.333,13.855 20.032,13.191 20.032,12.375 C20.032,11.557 19.333,10.892 18.474,10.892 C17.616,10.892 16.917,11.557 16.917,12.375 C16.917,13.191 17.616,13.855 18.474,13.855 ZM5.719,13.855 C6.578,13.855 7.276,13.191 7.276,12.375 C7.276,11.557 6.578,10.892 5.719,10.892 C4.860,10.892 4.162,11.557 4.162,12.375 C4.162,13.191 4.860,13.855 5.719,13.855 Z" />
    </symbol>
    <symbol viewBox="0 0 99 88" id="icon-tools">
        <title>icon-tools</title>
        <path d="M15.464,28.741c4.667-3.623,8.536-1.126,13.704,4.852c0.581,0.67,1.362-0.113,1.805-0.503
            c0.441-0.388,7.258-6.517,7.59-6.807c0.333-0.292,0.734-0.84,0.203-1.455c-0.529-0.616-2.471-3.123-3.713-4.748
            C26.014,8.254,59.786,0.237,54.595,0.106c-2.638-0.066-13.229-0.19-14.81-0.022c-6.42,0.681-14.471,6.674-18.527,9.462
            c-5.299,3.642-7.281,5.765-7.612,6.055c-1.498,1.312-0.241,4.338-2.958,6.718c-2.876,2.525-4.668,0.621-6.33,2.077
            c-0.829,0.731-3.135,2.457-3.798,3.04c-0.665,0.583-0.783,1.57-0.107,2.353c0,0,6.318,6.982,6.85,7.595
            c0.53,0.618,1.953,1.138,2.838,0.36c0.887-0.776,3.156-2.768,3.543-3.111C14.074,34.296,13.43,30.32,15.464,28.741z M44.007,31.324
            c-0.598-0.691-1.339-0.708-1.987-0.14l-7.171,6.255c-0.563,0.496-0.638,1.419-0.134,2l41.471,47.188
            c0.968,1.118,2.65,1.236,3.758,0.264l4.854-4.062c1.105-0.973,1.222-2.669,0.255-3.787L44.007,31.324z M99.306,11.237
            c-0.372-2.471-1.653-1.947-2.315-0.901c-0.661,1.048-3.604,5.505-4.814,7.523c-1.202,2.008-4.157,5.955-9.669,2.057
            c-5.74-4.06-3.744-6.891-2.741-8.798c1.002-1.913,4.089-7.276,4.533-7.949c0.445-0.673-0.073-2.636-1.854-1.813
            c-1.784,0.823-12.614,5.129-14.118,11.296c-1.532,6.286,1.286,11.896-4.25,17.474l-6.711,7.002l6.741,7.838l8.273-7.852
            c1.974-1.983,6.179-3.906,9.99-3.043c8.165,1.849,12.618-1.22,15.301-6.286C100.074,23.248,99.676,13.708,99.306,11.237z
             M13.491,79.548c-1.04,1.048-1.04,2.748-0.001,3.796l4.756,4.646c1.041,1.046,2.691,0.607,3.731-0.44l24.538-24.126l-7.521-8.557
            L13.491,79.548z"/>
    </symbol>
    <symbol viewBox="0 0 62 62" id="icon-tools-2">
        <title>icon-tools-2</title>
            <path d="M55.301,19.782 C55.301,19.782 42.120,6.601 42.120,6.601 C42.120,6.601 46.644,2.077 46.644,2.077 C48.276,0.445 50.910,0.434 52.528,2.052 C52.528,2.052 59.850,9.374 59.850,9.374 C61.468,10.992 61.457,13.626 59.825,15.258 C59.825,15.258 55.301,19.782 55.301,19.782 ZM22.937,52.270 C22.937,52.270 9.653,38.986 9.653,38.986 C9.653,38.986 40.698,7.942 40.698,7.942 C40.698,7.942 53.982,21.226 53.982,21.226 C53.982,21.226 22.937,52.270 22.937,52.270 ZM40.672,13.973 C40.672,13.973 15.685,38.960 15.685,38.960 C15.685,38.960 17.140,40.416 17.140,40.416 C17.140,40.416 42.127,15.429 42.127,15.429 C42.127,15.429 40.672,13.973 40.672,13.973 ZM43.583,16.884 C43.583,16.884 18.596,41.872 18.596,41.872 C18.596,41.872 20.052,43.327 20.052,43.327 C20.052,43.327 45.039,18.340 45.039,18.340 C45.039,18.340 43.583,16.884 43.583,16.884 ZM21.507,44.783 C21.507,44.783 22.963,46.239 22.963,46.239 C22.963,46.239 47.950,21.251 47.950,21.251 C47.950,21.251 46.494,19.796 46.494,19.796 C46.494,19.796 21.507,44.783 21.507,44.783 ZM11.739,25.073 C11.739,25.073 17.623,19.189 17.623,19.189 C17.623,19.189 16.287,17.852 16.287,17.852 C16.287,17.852 10.402,23.736 10.402,23.736 C10.402,23.736 5.839,19.173 5.839,19.173 C5.839,19.173 11.694,13.317 11.694,13.317 C11.694,13.317 10.265,11.888 10.265,11.888 C10.265,11.888 4.409,17.743 4.409,17.743 C4.409,17.743 0.000,13.334 0.000,13.334 C0.000,13.334 13.334,0.000 13.334,0.000 C13.334,0.000 29.624,16.196 29.624,16.196 C29.624,16.196 16.243,29.577 16.243,29.577 C16.243,29.577 11.739,25.073 11.739,25.073 ZM8.099,57.888 C8.099,57.888 1.705,60.218 1.705,60.218 C1.705,60.218 4.035,53.824 4.035,53.824 C4.035,53.824 8.099,57.888 8.099,57.888 ZM8.631,40.716 C8.631,40.716 21.208,53.293 21.208,53.293 C21.208,53.293 10.187,57.206 10.187,57.206 C10.187,57.206 4.717,51.736 4.717,51.736 C4.717,51.736 8.631,40.716 8.631,40.716 ZM62.000,48.666 C62.000,48.666 48.666,62.000 48.666,62.000 C48.666,62.000 44.257,57.591 44.257,57.591 C44.257,57.591 50.112,51.735 50.112,51.735 C50.112,51.735 48.683,50.306 48.683,50.306 C48.683,50.306 42.827,56.161 42.827,56.161 C42.827,56.161 38.264,51.598 38.264,51.598 C38.264,51.598 44.148,45.713 44.148,45.713 C44.148,45.713 42.811,44.377 42.811,44.377 C42.811,44.377 36.927,50.261 36.927,50.261 C36.927,50.261 32.424,45.757 32.424,45.757 C32.424,45.757 45.804,32.376 45.804,32.376 C45.804,32.376 62.000,48.666 62.000,48.666 Z" />
    </symbol>    

    <symbol viewBox="0 0 16.7 17.4" id="icon-myaccount">
        <title>icon-myaccount</title>
        <path d="M11.8,8.1c-0.2,0.2-0.5,0.2-0.6,0.5C11,8.9,11.1,9.4,11,9.8c-0.1,0.4-0.5,0.5-0.5,1c0.2,0,0.4,0,0.5,0.1
            c0.2,0.4,0.5,1.1,0.8,1.3c0.3,0.1,0.6,0.1,0.8,0.2c1,0.4,2,0.9,3,1.3c0.9,0.4,0.7,0.5,1.1,1.4c0,0.6,0,1.4,0,2.3H0
            c0-0.8,0-1.6,0-2.3c0.3-0.9,0.1-1,1-1.4c1-0.4,2-0.9,3-1.3c0.3-0.1,0.6-0.1,0.8-0.2c0.3-0.2,0.7-1,0.8-1.3l0.4-0.1
            C6,10.3,5.7,10.3,5.5,10c-0.1-0.5-0.1-1-0.2-1.6c0,0-0.4-0.1-0.4-0.1C4.5,8,4.5,6.7,4.4,6.2c0-0.2,0.3-0.4,0.2-0.9
            C4.1,2.7,4.9,1,6.2,0.5c0.9-0.3,2.5-1,4.1-0.1l0.4,0.3l0.6,0.1c0.3,0.2,0.5,0.8,0.5,0.8c0.2,0.6,0.2,1.2,0.2,1.9
            c0,0.3-0.2,1.4-0.1,1.8c0,0.3,0.1,0.3,0.2,0.6c0.2,0.4,0.1,1,0.1,1.4C12,7.6,11.9,7.9,11.8,8.1z" />
   </symbol>
    <symbol viewBox="0 0 200 200" id="icon-pin">
          <title>icon-pin</title>
              <path d="M60.5,62.8c0-22.2,17.7-40,39.4-40s39.4,17.9,39.4,40s-17.7,40-39.4,40S60.5,85,60.5,62.8z M33,67.9 C33,84.7,52.9,120,52.9,120l47,80.2l44.3-80.1c0,0,22.8-35.6,22.8-52.1c0-37.7-30.1-68.2-67.1-68.2S33,30.2,33,67.9z" />
    </symbol>
    <symbol viewBox="0 0 200 200" id="icon-phone">
          <title>icon-phone</title>
          <path d="M115.2,115.1c-19.8,19.8-42.8,38.8-51.7,29.8c-13-13-21-24.2-49.5-1.2s-6.7,38.2,6,51 c14.5,14.5,68.5, 8,122-52.7s67.2-107.5,52.8-122c-12.5-12.5-28-34.5-50.8-6c-23,28.5-11.8,36.5,1.2,49.5 C153.9,72.4,135.2,95.1,115.2,115.1z" />
    </symbol>
    <symbol viewBox="2.168 2.141 30 40" id="icon-lock">
        <title>icon-lock</title>
        <path d="M29.668,19.641h-2.5v-7.5c0-5.523-4.477-10-10-10c-5.523,0-10,4.477-10,10v7.5h-2.5c-1.375,0-2.5,1.125-2.5,2.5v17.5
              c0,1.375,1.125,2.5,2.5,2.5h25c1.375,0,2.5-1.125,2.5-2.5v-17.5C32.168,20.766,31.043,19.641,29.668,19.641z M17.168,34.641
              c-1.381,0-2.5-1.119-2.5-2.5c0-1.381,1.119-2.5,2.5-2.5c1.381,0,2.5,1.119,2.5,2.5C19.668,33.522,18.549,34.641,17.168,34.641z
              M22.168,19.641h-10v-7.5c0-2.757,2.243-5,5-5s5,2.243,5,5V19.641z"/>
    </symbol>

    <symbol viewBox="0 0 45 58" id="icon-calculator">
        <title>icon-calculator</title>    
        <path d="M41.400,57.613 C41.400,57.613 3.600,57.613 3.600,57.613 C1.612,57.613 -0.000,56.001 -0.000,54.013 C-0.000,54.013 -0.000,3.613 -0.000,3.613 C-0.000,1.624 1.612,0.012 3.600,0.012 C3.600,0.012 41.400,0.012 41.400,0.012 C43.388,0.012 45.000,1.624 45.000,3.613 C45.000,3.613 45.000,54.013 45.000,54.013 C45.000,56.001 43.388,57.613 41.400,57.613 ZM18.000,52.212 C18.000,53.206 18.806,54.013 19.800,54.013 C19.800,54.013 25.200,54.013 25.200,54.013 C26.194,54.013 27.000,53.206 27.000,52.212 C27.000,52.212 27.000,46.812 27.000,46.812 C27.000,45.818 26.194,45.013 25.200,45.013 C25.200,45.013 19.800,45.013 19.800,45.013 C18.806,45.013 18.000,45.818 18.000,46.812 C18.000,46.812 18.000,52.212 18.000,52.212 ZM18.000,39.613 C18.000,40.607 18.806,41.412 19.800,41.412 C19.800,41.412 25.200,41.412 25.200,41.412 C26.194,41.412 27.000,40.607 27.000,39.613 C27.000,39.613 27.000,34.212 27.000,34.212 C27.000,33.218 26.194,32.413 25.200,32.413 C25.200,32.413 19.800,32.413 19.800,32.413 C18.806,32.413 18.000,33.218 18.000,34.212 C18.000,34.212 18.000,39.613 18.000,39.613 ZM18.000,27.012 C18.000,28.007 18.806,28.813 19.800,28.813 C19.800,28.813 25.200,28.813 25.200,28.813 C26.194,28.813 27.000,28.007 27.000,27.012 C27.000,27.012 27.000,21.612 27.000,21.612 C27.000,20.619 26.194,19.813 25.200,19.813 C25.200,19.813 19.800,19.813 19.800,19.813 C18.806,19.813 18.000,20.619 18.000,21.612 C18.000,21.612 18.000,27.012 18.000,27.012 ZM5.400,52.212 C5.400,53.206 6.206,54.013 7.200,54.013 C7.200,54.013 12.600,54.013 12.600,54.013 C13.594,54.013 14.400,53.206 14.400,52.212 C14.400,52.212 14.400,46.812 14.400,46.812 C14.400,45.818 13.594,45.013 12.600,45.013 C12.600,45.013 7.200,45.013 7.200,45.013 C6.206,45.013 5.400,45.818 5.400,46.812 C5.400,46.812 5.400,52.212 5.400,52.212 ZM5.400,39.613 C5.400,40.607 6.206,41.412 7.200,41.412 C7.200,41.412 12.600,41.412 12.600,41.412 C13.594,41.412 14.400,40.607 14.400,39.613 C14.400,39.613 14.400,34.212 14.400,34.212 C14.400,33.218 13.594,32.413 12.600,32.413 C12.600,32.413 7.200,32.413 7.200,32.413 C6.206,32.413 5.400,33.218 5.400,34.212 C5.400,34.212 5.400,39.613 5.400,39.613 ZM5.400,27.012 C5.400,28.007 6.206,28.813 7.200,28.813 C7.200,28.813 12.600,28.813 12.600,28.813 C13.594,28.813 14.400,28.007 14.400,27.012 C14.400,27.012 14.400,21.612 14.400,21.612 C14.400,20.619 13.594,19.813 12.600,19.813 C12.600,19.813 7.200,19.813 7.200,19.813 C6.206,19.813 5.400,20.619 5.400,21.612 C5.400,21.612 5.400,27.012 5.400,27.012 ZM39.600,5.413 C39.600,5.413 5.400,5.413 5.400,5.413 C5.400,5.413 5.400,14.413 5.400,14.413 C5.400,14.413 39.600,14.413 39.600,14.413 C39.600,14.413 39.600,5.413 39.600,5.413 ZM39.600,21.612 C39.600,20.619 38.794,19.813 37.800,19.813 C37.800,19.813 32.400,19.813 32.400,19.813 C31.406,19.813 30.600,20.619 30.600,21.612 C30.600,21.612 30.600,27.012 30.600,27.012 C30.600,28.007 31.406,28.813 32.400,28.813 C32.400,28.813 37.800,28.813 37.800,28.813 C38.794,28.813 39.600,28.007 39.600,27.012 C39.600,27.012 39.600,21.612 39.600,21.612 ZM39.600,34.212 C39.600,33.218 38.794,32.413 37.800,32.413 C37.800,32.413 32.400,32.413 32.400,32.413 C31.406,32.413 30.600,33.218 30.600,34.212 C30.600,34.212 30.600,39.613 30.600,39.613 C30.600,40.607 31.406,41.412 32.400,41.412 C32.400,41.412 37.800,41.412 37.800,41.412 C38.794,41.412 39.600,40.607 39.600,39.613 C39.600,39.613 39.600,34.212 39.600,34.212 ZM39.600,46.812 C39.600,45.818 38.794,45.013 37.800,45.013 C37.800,45.013 32.400,45.013 32.400,45.013 C31.406,45.013 30.600,45.818 30.600,46.812 C30.600,46.812 30.600,52.212 30.600,52.212 C30.600,53.206 31.406,54.013 32.400,54.013 C32.400,54.013 37.800,54.013 37.800,54.013 C38.794,54.013 39.600,53.206 39.600,52.212 C39.600,52.212 39.600,46.812 39.600,46.812 Z" id="path-1" class="cls-2" />
    </symbol>
    <symbol viewBox="53.5 84 45 32" id="icon-cart">
        <title>icon-cart</title>    

<path d="M94.987,88.572h-5.956l-6.61,18.461c-0.1,0.28-0.254,0.522-0.444,0.721c-0.36,0.415-0.884,0.677-1.468,0.677H62.413
    c-1.086,0-1.967-0.906-1.967-2.025c0-1.119,0.881-2.025,1.967-2.025h16.765l0.931-2.602H59.766c-1.086,0-1.967-0.907-1.967-2.025
    c0-1.119,0.881-2.025,1.967-2.025H81.56l1.013-2.831H57.128c-1.086,0-1.967-0.906-1.967-2.026c0-1.118,0.881-2.025,1.967-2.025
    h26.895l1.782-4.978c0.287-0.802,1.015-1.304,1.798-1.324c0.099-0.016,0.2-0.024,0.303-0.024h7.081c1.086,0,1.967,0.907,1.967,2.025
    C96.954,87.666,96.073,88.572,94.987,88.572z M66.488,110.028c1.556,0,2.817,1.299,2.817,2.901c0,1.602-1.261,2.901-2.817,2.901
    c-1.556,0-2.817-1.299-2.817-2.901C63.671,111.327,64.932,110.028,66.488,110.028z M81.143,109.971c1.556,0,2.817,1.298,2.817,2.9
    s-1.261,2.901-2.817,2.901c-1.556,0-2.817-1.299-2.817-2.901C78.325,111.27,79.587,109.971,81.143,109.971z"/>
    </symbol>

    <symbol viewBox="0 0 55 40" id="icon-pickup">
        <title>icon-pickup</title>    
        <polygon points="28.417,12.713 34.395,12.713 34.191,6.599 31.192,1.467 28.417,1.467 
            28.417,10.246 "/>
        <polygon points="36.12,12.713 41.667,12.713 41.464,6.599 38.477,1.467 32.906,1.467 
            36.12,6.601 "/>
        <polygon points="20.274,12.713 26.478,12.713 26.478,1.467 23.478,1.467 20.478,6.599 "/>
        <path d="M50.072,6.658l-4.164-5.191h-5.724l3.2,5.134v6.112v0.319v14.73H11.735v-14.73
            v-0.319V6.601l3.186-5.134H8.998L4.833,6.658c0,0-3.201,4.489,3.738,5.97c-0.107,0.339-0.167,0.7-0.167,1.077v20.762
            c0,1.911,1.491,3.46,3.331,3.46h31.648c1.84,0,3.331-1.548,3.331-3.46V13.705c0-0.393-0.066-0.769-0.182-1.12
            C53.211,11.061,50.072,6.658,50.072,6.658z"/>
        <polygon points="13.445,12.713 18.55,12.713 18.55,6.601 21.764,1.467 16.621,1.467 
            13.647,6.599 "/>
    </symbol>
    <symbol viewBox="0 0 55 40" id="icon-delivery">
        <title>icon-delivery</title>    
        <path  d="M18.228,25.676V2.218c-2.371-1.618-4.347,6.067-4.347,6.067L9.93,7.88
            c-3.557,0-4.347,2.427-4.347,2.427l-3.556,9.302V29.72l1.976,1.618l3.161-0.404c1.581-5.662,6.323-5.258,6.323-5.258
            c5.73,0,6.323,5.662,6.323,5.662h11.855c-0.198-2.224,3.556-5.662,3.556-5.662H18.228z M14.277,18.8H8.349l-1.186,1.618H4.398
            l3.161-8.493h6.718V18.8z"/>
        <rect x="19.809" y="2.218" width="31.218" height="22.244"/>
        <ellipse  cx="13.486" cy="32.147" rx="4.742" ry="4.853"/>
        <ellipse cx="37.986" cy="32.147" rx="4.742" ry="4.853"/>
        <path  d="M41.148,26.08c2.292,0.728,3.161,4.854,3.161,4.854l3.951,0.404
        c0.632-1.294,2.766-1.618,2.766-1.618v-4.044h-9.879V26.08z"/>
    </symbol>



    <symbol viewBox="0 0 460.667 232.667" id="icon-reserveinstore">
        <title>icon-reserveinstore</title>
           <path d="M99.758,95.283c-0.612,0-1.223,0-1.937,0.102v20.176c0.51,0,1.121,0.102,1.631,0.102
        c6.216,0,9.476-3.465,9.476-10.394C108.929,98.34,106.178,95.283,99.758,95.283z"/>
    <path d="M254.126,95.283c-0.612,0-1.224,0-1.936,0.102v20.176c0.509,0,1.121,0.102,1.63,0.102
        c6.216,0,9.478-3.465,9.478-10.394C263.297,98.34,260.546,95.283,254.126,95.283z"/>
    <path d="M441.024,34.17c-0.667-5.98-5.771-10.672-11.921-10.672h-4.844H66.091H62.24
        c-3.28,0-6.263,1.336-8.435,3.488c-5.995,3.49-10.809,9.288-12.604,15.987l-29.524,120.13c-1.579,5.984-0.524,11.969,2.901,16.432
        c3.343,4.357,8.652,6.856,14.564,6.856H50.24v16.467c0,6.6,5.4,12,12,12h366.863c6.6,0,12-5.4,12-12V49.311l0.003-2.525
        C441.106,42.298,441.106,38.463,441.024,34.17z M50.24,171.338H29.142c-0.857,0-2.008-0.167-2.621-0.966
        c-0.568-0.742-0.671-2-0.282-3.455l24-97.653V171.338z M109.642,156.729l-11.821-30.162v30.162H83.76V84.074h15.081
        c16.1,0,23.64,5.808,23.64,20.482c0,10.19-3.668,16.508-11.514,19.055l13.96,33.118H109.642z M159.061,97.524h-16.508v14.674h14.98
        v13.35h-14.98v17.017h16.508v14.164h-30.57V84.074h30.57V97.524z M177.095,157.646c-4.891,0-8.967-1.121-12.534-3.465V139.1
        c3.567,3.158,7.032,4.789,10.699,4.789c4.993,0,7.948-2.853,7.948-7.235c0-5.094-3.872-7.132-8.152-11.004
        c-7.642-6.93-11.617-12.432-11.617-21.501c0-12.534,7.745-20.992,19.157-20.992c4.178,0,8.05,1.222,12.228,3.567v12.84
        c-4.178-2.039-7.133-3.261-9.68-3.261c-4.178,0-7.133,2.853-7.133,7.133c0,4.993,3.363,7.948,8.458,12.33
        c7.133,6.115,11.515,10.292,11.515,20.482C197.984,149.29,190.138,157.646,177.095,157.646z M232.424,97.524h-16.508v14.674h14.98
        v13.35h-14.98v17.017h16.508v14.164h-30.57V84.074h30.57V97.524z M264.01,156.729l-11.82-30.162v30.162h-14.062V84.074h15.081
        c16.1,0,23.64,5.808,23.64,20.482c0,10.19-3.668,16.508-11.514,19.055l13.96,33.118H264.01z M308.028,156.729h-12.126
        l-20.685-72.654h14.674l8.559,32.913c1.529,6.013,2.751,13.248,3.465,21.807c0.509-7.745,1.63-14.877,3.26-21.501l8.356-33.22
        h15.081L308.028,156.729z M360.912,97.524h-16.508v14.674h14.979v13.35h-14.979v17.017h16.508v14.164h-30.57V84.074h30.57V97.524z
         M399.936,151.328c-6.318,4.789-13.348,5.401-22.418,5.401h-10.904V84.074h12.431c22.419,0,33.423,11.922,33.423,36.378
        C412.469,134.718,408.801,144.603,399.936,151.328z"/>
    <path d="M381.9,97.321c-0.306,0-0.612,0-0.917,0v45.957c0.407,0,0.814,0,1.121,0
        c10.19,0,15.896-7.745,15.896-22.622C398,104.861,392.803,97.321,381.9,97.321z"/>

    </symbol>



    <symbol id="icon-close" viewBox="0 0 8.1 8.1">
        <title>icon-close</title>  
        <polygon points="7.92,6.614 5.184,3.898 7.795,1.306 6.661,0.18 4.05,2.772 1.44,0.18 
            0.305,1.306 2.916,3.898 0.18,6.614 1.314,7.74 4.05,5.024 6.786,7.74 "/>
    </symbol>
    <symbol viewBox="0 0 30 32" id="icon-search">
        <title>icon-search</title>  
            <path d="M20.571 14.857q0-3.304-2.348-5.652t-5.652-2.348-5.652 2.348-2.348 5.652 2.348 5.652 5.652 2.348 5.652-2.348 2.348-5.652zM29.714 29.714q0 0.929-0.679 1.607t-1.607 0.679q-0.964 0-1.607-0.679l-6.125-6.107q-3.196 2.214-7.125 2.214-2.554 0-4.884-0.991t-4.018-2.679-2.679-4.018-0.991-4.884 0.991-4.884 2.679-4.018 4.018-2.679 4.884-0.991 4.884 0.991 4.018 2.679 2.679 4.018 0.991 4.884q0 3.929-2.214 7.125l6.125 6.125q0.661 0.661 0.661 1.607z"></path>
    </symbol>            

    <symbol id="icon-listview" viewBox="0 0 32 32" >
        <rect x="13.233" y="25.38" fill-rule="evenodd" clip-rule="evenodd" width="16.85" height="1.944"/>
        <rect x="13.233" y="21.492" fill-rule="evenodd" clip-rule="evenodd" width="16.85" height="1.944"/>
        <rect x="13.233" y="17.647" fill-rule="evenodd" clip-rule="evenodd" width="16.85" height="1.944"/>
        <rect x="13.233" y="11.814" fill-rule="evenodd" clip-rule="evenodd" width="16.85" height="1.944"/>
        <rect x="13.233" y="7.969" fill-rule="evenodd" clip-rule="evenodd" width="16.85" height="1.944"/>
        <rect x="13.233" y="4.08" fill-rule="evenodd" clip-rule="evenodd" width="16.85" height="1.944"/>
        <rect x="2" y="17.647" fill-rule="evenodd" clip-rule="evenodd" width="9.375" height="9.678"/>
        <rect x="2" y="4.08" fill-rule="evenodd" clip-rule="evenodd" width="9.375" height="9.678"/>
    </symbol>
    <symbol id="icon-gridview" viewBox="0 0 32 32">
        <path fill-rule="evenodd" clip-rule="evenodd" d="M17.166,4.75h13.317v6.08H17.166V4.75z"/>
        <path fill-rule="evenodd" clip-rule="evenodd" d="M17.166,20.921h13.317V27H17.166V20.921z"/>
        <path fill-rule="evenodd" clip-rule="evenodd" d="M17.166,12.856h13.317v6.038H17.166V12.856z"/>
        <path fill-rule="evenodd" clip-rule="evenodd" d="M1.947,20.921h13.317V27H1.947V20.921z"/>
        <path fill-rule="evenodd" clip-rule="evenodd" d="M1.947,12.856h13.317v6.038H1.947V12.856z"/>
        <path fill-rule="evenodd" clip-rule="evenodd" d="M1.947,4.75h13.317v6.08H1.947V4.75z"/>
    </symbol>

    <symbol id="icon-minus" viewBox="0 0 32 32">
        <title>icon-minus</title>
        <path d="M0 13v6c0 0.552 0.448 1 1 1h30c0.552 0 1-0.448 1-1v-6c0-0.552-0.448-1-1-1h-30c-0.552 0-1 0.448-1 1z"></path>
    </symbol>
    <symbol id="icon-plus" viewBox="0 0 32 32">
        <title>icon-plus</title>
        <path d="M31 12h-11v-11c0-0.552-0.448-1-1-1h-6c-0.552 0-1 0.448-1 1v11h-11c-0.552 0-1 0.448-1 1v6c0 0.552 0.448 1 1 1h11v11c0 0.552 0.448 1 1 1h6c0.552 0 1-0.448 1-1v-11h11c0.552 0 1-0.448 1-1v-6c0-0.552-0.448-1-1-1z"></path>
    </symbol>



    <symbol id="icon-expand" viewBox="-140 143.5 34 34">
        <title>icon-expand</title>   
    <path d="M-106.8,165c-0.4,0-0.8,0.3-0.8,0.8v8.9l-12.6-12.6l-1.7-1.7l1.7-1.7l12.6-12.6v8.9c0,0.4,0.3,0.8,0.8,0.8s0.8-0.3,0.8-0.8
    v-10.8c0-0.4-0.3-0.8-0.8-0.8h-10.8c-0.4,0-0.8,0.3-0.8,0.8c0,0.4,0.3,0.8,0.8,0.8h8.9l-12.6,12.6l-1.7,1.7l-1.7-1.7l-12.6-12.6h8.9
    c0.4,0,0.8-0.3,0.8-0.8c0-0.4-0.3-0.8-0.8-0.8h-10.8c-0.4,0-0.8,0.3-0.8,0.8v10.8c0,0.4,0.3,0.8,0.8,0.8c0.4,0,0.8-0.3,0.8-0.8v-8.9
    l12.6,12.6l1.7,1.7l-1.7,1.7l-12.6,12.6v-8.9c0-0.4-0.3-0.8-0.8-0.8c-0.4,0-0.8,0.3-0.8,0.8v10.8c0,0.4,0.3,0.8,0.8,0.8h10.8
    c0.4,0,0.8-0.3,0.8-0.8c0-0.4-0.3-0.8-0.8-0.8h-8.9l12.6-12.6l1.7-1.7l1.7,1.7l12.6,12.6h-8.9c-0.4,0-0.8,0.3-0.8,0.8
    c0,0.4,0.3,0.8,0.8,0.8h10.8c0.4,0,0.8-0.3,0.8-0.8v-10.8C-106.1,165.3-106.4,165-106.8,165z"/>
    </symbol>


    <symbol id="icon-plus-slim" viewBox="-122.9 124 36.9 36.9">
        <title>icon-plus-slim</title>
        <path d="M-88.8,141.6c-0.2-0.2-0.5-0.3-0.8-0.3l-13.7,0v-1.9l0-2.3l0-9.5c0-0.3-0.1-0.6-0.3-0.8c-0.5-0.5-1.2-0.5-1.7,0
        c-0.2,0.2-0.3,0.5-0.3,0.8l0,9.5v2.3v1.9h-1.9h-2.3l-9.5,0c-0.3,0-0.6,0.1-0.8,0.3c-0.5,0.5-0.5,1.2,0,1.7c0.2,0.2,0.5,0.3,0.8,0.3
        l9.5,0h2.3h1.9l0,13.7c0,0.3,0.1,0.6,0.3,0.8c0.5,0.5,1.2,0.5,1.7,0c0.2-0.2,0.3-0.5,0.3-0.8l0-13.7l13.7,0c0.3,0,0.6-0.1,0.8-0.3
        C-88.4,142.8-88.4,142.1-88.8,141.6z"/>
    </symbol>


    <symbol id="icon-minus-slim" viewBox="-122.9 124 36.9 36.9">
        <title>icon-minus-slim</title>
        <path d="M-88.8,141.6c-0.2-0.2-0.5-0.3-0.8-0.3l-17.9,0h-2.3l-9.5,0c-0.3,0-0.6,0.1-0.8,0.3c-0.5,0.5-0.5,1.2,0,1.7
            c0.2,0.2,0.5,0.3,0.8,0.3l9.5,0h2.3l17.9,0c0.3,0,0.6-0.1,0.8-0.3C-88.4,142.8-88.4,142.1-88.8,141.6z"/>

    </symbol>



    <symbol id="icon-checkmark" viewBox="0 0 32 32">
        <title>icon-checkmark</title>
        <path d="M27 4l-15 15-7-7-5 5 12 12 20-20z"></path>
    </symbol>

    <symbol id="icon-angle-down" viewBox="0 0 21 32">
        <title>icon-angle-down</title>
        <path d="M19.196 13.143q0 0.232-0.179 0.411l-8.321 8.321q-0.179 0.179-0.411 0.179t-0.411-0.179l-8.321-8.321q-0.179-0.179-0.179-0.411t0.179-0.411l0.893-0.893q0.179-0.179 0.411-0.179t0.411 0.179l7.018 7.018 7.018-7.018q0.179-0.179 0.411-0.179t0.411 0.179l0.893 0.893q0.179 0.179 0.179 0.411z"></path>
    </symbol>

    <symbol id="icon-angle-up" viewBox="0 0 21 32">
        <title>icon-angle-up</title>
        <path d="M19.196 21.143q0 0.232-0.179 0.411l-0.893 0.893q-0.179 0.179-0.411 0.179t-0.411-0.179l-7.018-7.018-7.018 7.018q-0.179 0.179-0.411 0.179t-0.411-0.179l-0.893-0.893q-0.179-0.179-0.179-0.411t0.179-0.411l8.321-8.321q0.179-0.179 0.411-0.179t0.411 0.179l8.321 8.321q0.179 0.179 0.179 0.411z"></path>
    </symbol>


    <symbol id="icon-angle-left" viewBox="0 0 11 32">
        <title>icon-angle-left</title>
        <path d="M11.196 9.714q0 0.232-0.179 0.411l-7.018 7.018 7.018 7.018q0.179 0.179 0.179 0.411t-0.179 0.411l-0.893 0.893q-0.179 0.179-0.411 0.179t-0.411-0.179l-8.321-8.321q-0.179-0.179-0.179-0.411t0.179-0.411l8.321-8.321q0.179-0.179 0.411-0.179t0.411 0.179l0.893 0.893q0.179 0.179 0.179 0.411z"></path>
    </symbol>

    <symbol id="icon-angle-right" viewBox="0 0 11 32">
        <title>icon-angle-right</title>
        <path d="M10.625 17.143q0 0.232-0.179 0.411l-8.321 8.321q-0.179 0.179-0.411 0.179t-0.411-0.179l-0.893-0.893q-0.179-0.179-0.179-0.411t0.179-0.411l7.018-7.018-7.018-7.018q-0.179-0.179-0.179-0.411t0.179-0.411l0.893-0.893q0.179-0.179 0.411-0.179t0.411 0.179l8.321 8.321q0.179 0.179 0.179 0.411z"></path>
    </symbol>    

    <symbol id="icon-chevron-down" viewBox="0 0 32 32">
        <title>icon-chevron-down</title>
        <path d="M30.054 14.429l-13.25 13.232q-0.339 0.339-0.804 0.339t-0.804-0.339l-13.25-13.232q-0.339-0.339-0.339-0.813t0.339-0.813l2.964-2.946q0.339-0.339 0.804-0.339t0.804 0.339l9.482 9.482 9.482-9.482q0.339-0.339 0.804-0.339t0.804 0.339l2.964 2.946q0.339 0.339 0.339 0.813t-0.339 0.813z"></path>
    </symbol>

    <symbol id="icon-chevron-up" viewBox="0 0 32 32">
        <title>icon-chevron-up</title>
        <path d="M30.054 23.768l-2.964 2.946q-0.339 0.339-0.804 0.339t-0.804-0.339l-9.482-9.482-9.482 9.482q-0.339 0.339-0.804 0.339t-0.804-0.339l-2.964-2.946q-0.339-0.339-0.339-0.813t0.339-0.813l13.25-13.232q0.339-0.339 0.804-0.339t0.804 0.339l13.25 13.232q0.339 0.339 0.339 0.813t-0.339 0.813z"></path>
    </symbol>


    <symbol id="icon-lightbulb" viewBox="0 0 32 32">
        <path d="M16.07,0.566c5.511,0,8.138,4.548,8.138,8.258c0,4.347-4.065,7.219-4.185,14.519
        c-0.12,0-4.047-0.017-4.047-0.017h-4.181c0-7.249-4.129-10.036-4.129-14.468C7.667,4.909,10.559,0.566,16.07,0.566z"/>
        <path d="M12.832,28.498h6.093c0,0,0.064,0.459,0.064,1.025
        c0,0.566-0.459,1.025-1.026,1.025h-4.104c-0.567,0-1.026-0.459-1.026-1.025C12.832,28.957,12.832,28.498,12.832,28.498z"/>
        <path d="M12.319,24.398h7.183c0.283,0,0.513,0.23,0.513,0.512
        c0,0.283-0.23,0.513-0.513,0.513h-7.183c-0.283,0-0.513-0.23-0.513-0.513C11.806,24.628,12.035,24.398,12.319,24.398z"/>
        <path d="M12.319,26.448h7.183c0.283,0,0.513,0.23,0.513,0.512
        c0,0.283-0.23,0.513-0.513,0.513h-7.183c-0.283,0-0.513-0.229-0.513-0.513C11.806,26.677,12.035,26.448,12.319,26.448z"/>
    </symbol>

    <symbol id="icon-thumbsup" viewBox="240 240 32 32">
        <path d="M266.786,257.346c2.016,0,0.884,5.303-0.884,5.303c0.884,0,0,4.419-1.768,4.419c0,1.768-1.768,2.651-3.535,2.651
        c-7.467,0-4.84-1.868-12.373-2.651v-14.141c6.654-1.996,13.257-6.999,13.257-11.489c1.464,0,5.303,1.768,0,10.605
        c0,0,4.419,0,5.303,0C269.437,252.043,268.553,257.346,266.786,257.346z M246.459,252.927v14.141h1.768v0.884h-3.535
        c-0.972,0-1.768-1.193-1.768-2.651v-10.605c0-1.458,0.795-2.651,1.768-2.651h3.535v0.884H246.459z"/>
    </symbol>



</svg>
