<svg xmlns="http://www.w3.org/2000/svg">

    <symbol id="icon-myaccount" viewBox="0 0 16.7 17.4">
        <title>icon-myaccount</title>            
        <path  d="M11.8,8.1c-0.2,0.2-0.5,0.2-0.6,0.5C11,8.9,11.1,9.4,11,9.8c-0.1,0.4-0.5,0.5-0.5,1c0.2,0,0.4,0,0.5,0.1
                c0.2,0.4,0.5,1.1,0.8,1.3c0.3,0.1,0.6,0.1,0.8,0.2c1,0.4,2,0.9,3,1.3c0.9,0.4,0.7,0.5,1.1,1.4c0,0.6,0,1.4,0,2.3H0
                c0-0.8,0-1.6,0-2.3c0.3-0.9,0.1-1,1-1.4c1-0.4,2-0.9,3-1.3c0.3-0.1,0.6-0.1,0.8-0.2c0.3-0.2,0.7-1,0.8-1.3l0.4-0.1
                C6,10.3,5.7,10.3,5.5,10c-0.1-0.5-0.1-1-0.2-1.6c0,0-0.4-0.1-0.4-0.1C4.5,8,4.5,6.7,4.4,6.2c0-0.2,0.3-0.4,0.2-0.9
                C4.1,2.7,4.9,1,6.2,0.5c0.9-0.3,2.5-1,4.1-0.1l0.4,0.3l0.6,0.1c0.3,0.2,0.5,0.8,0.5,0.8c0.2,0.6,0.2,1.2,0.2,1.9
                c0,0.3-0.2,1.4-0.1,1.8c0,0.3,0.1,0.3,0.2,0.6c0.2,0.4,0.1,1,0.1,1.4C12,7.6,11.9,7.9,11.8,8.1z" />
    </symbol>

    <symbol id="icon-storelocator" viewBox="0 0 200 200">
        <title>icon-storelocator</title>            
        <path d="M60.5,62.8c0-22.2,17.7-40,39.4-40s39.4,17.9,39.4,40s-17.7,40-39.4,40S60.5,85,60.5,62.8z M33,67.9 C33,84.7,52.9,120,52.9,120l47,80.2l44.3-80.1c0,0,22.8-35.6,22.8-52.1c0-37.7-30.1-68.2-67.1-68.2S33,30.2,33,67.9z" />

    </symbol>

    <symbol id="icon-callus" viewBox="0 0 200 200">
        <title>icon-callus</title>            
        <path d="M115.2,115.1c-19.8,19.8-42.8,38.8-51.7,29.8c-13-13-21-24.2-49.5-1.2s-6.7,38.2,6,51 c14.5,14.5,68.5, 8,122-52.7s67.2-107.5,52.8-122c-12.5-12.5-28-34.5-50.8-6c-23,28.5-11.8,36.5,1.2,49.5 C153.9,72.4,135.2,95.1,115.2,115.1z" />
    </symbol>

    <symbol id="icon-close" viewBox="0 0 8.1 8.1">
        <title>icon-close</title>  
        <polygon points="7.92,6.614 5.184,3.898 7.795,1.306 6.661,0.18 4.05,2.772 1.44,0.18 
            0.305,1.306 2.916,3.898 0.18,6.614 1.314,7.74 4.05,5.024 6.786,7.74 "/>
    </symbol>
    <symbol id="icon-back" viewBox="0 0 74.602 66">
        <polygon points="39.516,66 39.52,46.863 74.602,46.867 74.602,19.102 39.516,19.102 39.52,0 1.602,33.002" />
    </symbol>

</svg>


